<svg xmlns="http://www.w3.org/2000/svg" width="320" height="320" viewBox="0 0 35 35" shape-rendering="crispEdges"><path fill="#ffffff" d="M0 0h35v35H0z"/><path stroke="#000000" d="M1 1.5h7 M9 1.5h1 M11 1.5h2 M14 1.5h1 M18 1.5h1 M20 1.5h2 M23 1.5h2 M27 1.5h7 M1 2.5h1 M7 2.5h1 M12 2.5h1 M17 2.5h2 M21 2.5h1 M23 2.5h1 M27 2.5h1 M33 2.5h1 M1 3.5h1 M3 3.5h3 M7 3.5h1 M10 3.5h7 M18 3.5h2 M21 3.5h1 M24 3.5h1 M27 3.5h1 M29 3.5h3 M33 3.5h1 M1 4.5h1 M3 4.5h3 M7 4.5h1 M11 4.5h1 M13 4.5h3 M17 4.5h1 M21 4.5h4 M27 4.5h1 M29 4.5h3 M33 4.5h1 M1 5.5h1 M3 5.5h3 M7 5.5h1 M9 5.5h3 M16 5.5h2 M19 5.5h1 M22 5.5h1 M25 5.5h1 M27 5.5h1 M29 5.5h3 M33 5.5h1 M1 6.5h1 M7 6.5h1 M9 6.5h1 M14 6.5h1 M16 6.5h1 M18 6.5h2 M21 6.5h3 M27 6.5h1 M33 6.5h1 M1 7.5h7 M9 7.5h1 M11 7.5h1 M13 7.5h1 M15 7.5h1 M17 7.5h1 M19 7.5h1 M21 7.5h1 M23 7.5h1 M25 7.5h1 M27 7.5h7 M12 8.5h1 M17 8.5h1 M19 8.5h1 M22 8.5h2 M25 8.5h1 M2 9.5h7 M10 9.5h1 M13 9.5h1 M15 9.5h2 M18 9.5h1 M21 9.5h1 M23 9.5h1 M25 9.5h1 M28 9.5h2 M33 9.5h1 M5 10.5h2 M8 10.5h1 M14 10.5h2 M17 10.5h1 M19 10.5h6 M27 10.5h2 M30 10.5h2 M33 10.5h1 M1 11.5h4 M7 11.5h3 M12 11.5h3 M17 11.5h1 M19 11.5h1 M21 11.5h2 M25 11.5h3 M29 11.5h1 M31 11.5h1 M2 12.5h4 M8 12.5h2 M11 12.5h1 M14 12.5h4 M20 12.5h1 M22 12.5h4 M27 12.5h1 M29 12.5h4 M3 13.5h3 M7 13.5h5 M13 13.5h1 M16 13.5h2 M19 13.5h1 M22 13.5h1 M25 13.5h4 M30 13.5h1 M33 13.5h1 M3 14.5h1 M6 14.5h1 M8 14.5h1 M11 14.5h1 M13 14.5h2 M16 14.5h1 M18 14.5h1 M21 14.5h3 M28 14.5h1 M30 14.5h1 M32 14.5h2 M1 15.5h1 M3 15.5h1 M5 15.5h4 M10 15.5h1 M13 15.5h6 M20 15.5h1 M24 15.5h4 M29 15.5h1 M32 15.5h1 M3 16.5h2 M6 16.5h1 M8 16.5h1 M13 16.5h2 M20 16.5h3 M24 16.5h1 M26 16.5h2 M29 16.5h3 M3 17.5h2 M7 17.5h2 M10 17.5h1 M12 17.5h1 M15 17.5h1 M19 17.5h2 M23 17.5h4 M28 17.5h2 M33 17.5h1 M2 18.5h3 M6 18.5h1 M8 18.5h3 M12 18.5h4 M19 18.5h3 M24 18.5h1 M26 18.5h3 M30 18.5h4 M2 19.5h1 M7 19.5h1 M10 19.5h7 M21 19.5h1 M23 19.5h1 M25 19.5h1 M28 19.5h2 M31 19.5h2 M1 20.5h1 M3 20.5h1 M8 20.5h2 M12 20.5h1 M14 20.5h1 M16 20.5h1 M19 20.5h1 M21 20.5h1 M26 20.5h1 M28 20.5h4 M1 21.5h2 M5 21.5h1 M7 21.5h1 M9 21.5h1 M13 21.5h3 M21 21.5h4 M28 21.5h3 M32 21.5h1 M1 22.5h1 M3 22.5h2 M6 22.5h1 M10 22.5h1 M13 22.5h1 M16 22.5h4 M25 22.5h2 M28 22.5h1 M31 22.5h1 M33 22.5h1 M1 23.5h1 M6 23.5h2 M9 23.5h1 M11 23.5h1 M15 23.5h1 M17 23.5h2 M21 23.5h1 M23 23.5h1 M26 23.5h1 M30 23.5h1 M32 23.5h1 M1 24.5h1 M4 24.5h3 M10 24.5h1 M14 24.5h1 M19 24.5h1 M22 24.5h1 M25 24.5h3 M29 24.5h3 M33 24.5h1 M1 25.5h1 M3 25.5h1 M5 25.5h4 M10 25.5h1 M12 25.5h1 M15 25.5h2 M19 25.5h1 M23 25.5h1 M25 25.5h5 M32 25.5h2 M9 26.5h4 M14 26.5h1 M17 26.5h1 M19 26.5h4 M25 26.5h1 M29 26.5h1 M31 26.5h3 M1 27.5h7 M9 27.5h4 M18 27.5h1 M21 27.5h2 M24 27.5h2 M27 27.5h1 M29 27.5h1 M31 27.5h2 M1 28.5h1 M7 28.5h1 M9 28.5h1 M11 28.5h2 M17 28.5h1 M20 28.5h1 M22 28.5h4 M29 28.5h4 M1 29.5h1 M3 29.5h3 M7 29.5h1 M9 29.5h3 M13 29.5h3 M18 29.5h2 M22 29.5h1 M25 29.5h6 M33 29.5h1 M1 30.5h1 M3 30.5h3 M7 30.5h1 M9 30.5h3 M13 30.5h2 M17 30.5h3 M21 30.5h6 M29 30.5h2 M32 30.5h1 M1 31.5h1 M3 31.5h3 M7 31.5h1 M9 31.5h2 M13 31.5h3 M18 31.5h1 M20 31.5h1 M22 31.5h4 M27 31.5h2 M30 31.5h1 M1 32.5h1 M7 32.5h1 M9 32.5h1 M11 32.5h5 M17 32.5h2 M20 32.5h4 M25 32.5h3 M29 32.5h3 M1 33.5h7 M10 33.5h1 M12 33.5h4 M19 33.5h3 M23 33.5h2 M27 33.5h2 M32 33.5h1"/></svg>
